<svg viewBox="0 0 1917 280" fill="#fff" xmlns="http://www.w3.org/2000/svg">
  <path d="M810.299 79.427C835.446 77.3541 849.088 96.6558 869.307 96.7622C880.968 96.824 891.608 89.4403 902.106 85.2368C911.863 81.3168 922.271 79.2699 932.787 79.2031C947.415 79.1391 965.402 82.4357 976.144 93.1602C981.411 98.4212 985.955 106.093 987.724 113.355C991.602 129.36 989.958 148.265 989.986 164.704L990.024 235.932C990.024 243.722 991.65 263.009 985.822 268.735C980.974 273.493 974.69 275.066 968.035 275.018C962.084 274.976 953.166 273.845 949.316 268.83C934.527 249.591 959.507 155.472 930.311 126.024C924.117 119.677 915.608 116.121 906.737 116.171C897.972 116.082 889.55 119.566 883.415 125.82C876.632 132.606 872.884 141.578 870.797 150.812C867.382 165.92 868.367 181.981 868.389 197.377L868.499 249.177C868.425 252.786 868.523 256.779 867.807 260.318C866.89 264.853 864.167 269.362 860.272 271.92C854.011 276.03 844.697 275.58 837.693 274.081C833.394 273.162 828.347 270.791 826.177 266.781C821.664 258.444 823.049 245.524 823.085 236.27C823.177 212.849 827.503 150.464 815.127 131.342C810.297 123.878 802.916 118.445 794.167 116.584C784.855 114.604 774.088 115.797 766.008 121.055C733.104 142.469 753.041 229.361 745.511 264.887C745.13 265.43 744.725 265.957 744.298 266.467C740.11 271.516 734.814 274.461 728.211 275.04C721.864 275.596 712.861 274.214 707.854 269.95C702.597 265.474 702.081 258.28 701.614 251.811C699.632 224.411 701.261 192.917 701.272 165.138C701.28 146.826 699.549 118.833 701.826 101.408C702.324 97.5955 703.76 93.831 706.335 90.9245C720.588 74.8322 747.622 91.0622 765.229 89.2018C780.661 87.5714 794.583 80.4683 810.299 79.427Z" />
  <path d="M1087 71.7885C1105.4 70.282 1125.6 70.7826 1143.57 75.2942C1157.78 78.862 1170.46 86.0218 1178.14 98.8536C1183.13 107.202 1185.41 116.954 1186.61 126.523C1188.55 142.044 1188.85 250.734 1186.4 260.377C1185.26 264.872 1182.88 268.758 1178.78 271.136C1163.88 279.786 1144.91 266.739 1129.47 267.111C1121.31 267.308 1113.7 270.391 1106.09 273.021C1088.21 279.207 1070.31 280.969 1051.87 276.227C1036.26 272.211 1024.21 263.277 1016.02 249.432C1012.68 243.445 1010.75 236.412 1009.86 229.654C1007.99 215.503 1010.78 200.486 1019.04 188.7C1048.35 146.886 1112.96 159.68 1129.41 138.01C1131.96 134.658 1133.05 130.627 1132.47 126.451C1131.54 119.744 1127.67 113.078 1122.28 108.999C1117.76 105.576 1112.97 104.163 1107.33 103.753C1083.13 101.988 1073.37 126.264 1051 129.263C1044.2 130.175 1034.18 129.051 1028.63 124.707C1025.86 122.542 1024.32 119.296 1023.96 115.841C1023.2 108.635 1026.63 101.258 1031.1 95.8369C1045.05 78.9408 1066.17 73.8 1087 71.7885ZM1092.72 239.924C1104.29 239.691 1113.45 235.568 1121.52 227.19C1128.37 220.079 1133.27 210.535 1133.04 200.483C1132.93 195.599 1131.47 190.729 1127.81 187.305C1123.59 183.353 1117.45 182.243 1111.85 182.481C1110.54 182.54 1109.23 182.638 1107.92 182.778C1093.86 185.368 1078.05 190.021 1069.48 202.435C1065.65 207.898 1064.15 214.664 1065.33 221.235C1066.32 226.55 1069.41 231.241 1073.9 234.247C1079.82 238.278 1085.6 239.919 1092.72 239.924Z" />
  <path d="M1816.47 71.7951C1834.83 69.7986 1856.94 70.832 1874.82 75.7771C1888.68 79.6074 1900.82 86.9423 1908.01 99.6991C1912.2 107.096 1914.56 115.553 1915.56 123.958C1917.28 138.457 1917.42 254.024 1915.13 262.088C1913.97 266.152 1911.42 269.358 1907.7 271.38C1892.79 279.485 1874.5 266.908 1859.17 267.091C1851.42 267.183 1843.98 270.023 1836.75 272.54C1817.44 279.268 1798.22 281.379 1778.36 275.392C1762.59 270.637 1751.6 260.998 1743.9 246.625C1742.28 242.536 1740.82 238.44 1740.06 234.095C1737.28 218.352 1738.89 202.11 1748.27 188.77C1766.35 163.056 1799.7 156.684 1828.48 151.58C1841.37 149.295 1853.27 146.268 1861.08 135.09C1861.25 131.807 1861.39 128.433 1861.03 125.16C1860.35 119.077 1856.42 112.826 1851.67 109.067C1847.3 105.616 1841.88 103.788 1836.36 103.496C1812.52 102.239 1802.9 126.463 1780.9 128.938C1774.03 129.711 1764 129.614 1758.4 125.052C1755.52 122.709 1753.46 118.724 1753.1 115.014C1752.46 108.498 1756.64 100.437 1760.65 95.5412C1774.37 78.7964 1795.94 73.7913 1816.47 71.7951ZM1820.33 239.944C1832.5 239.895 1841.71 236.52 1850.42 227.763C1857.42 220.718 1862.19 211.208 1862.11 201.138C1862.09 196.076 1860.8 190.839 1857.06 187.201C1853.5 183.742 1848 182.345 1843.14 182.441C1841.22 182.479 1839.29 182.66 1837.38 182.866C1823.41 185.117 1807.89 190.019 1799.2 202.024C1795.27 207.44 1793.46 214.303 1794.54 220.945C1795.38 226.099 1798.08 230.56 1802.34 233.612C1807.77 237.515 1813.62 239.725 1820.33 239.944Z" />
  <path d="M1424.52 69.9133C1468.14 65.7118 1509.4 91.1245 1520.76 134.32C1523.61 146.947 1529.52 161.698 1522.24 173.878C1516 184.354 1498.8 182.074 1488.03 182.225C1464.16 182.9 1438.95 180.899 1415.22 182.457C1379.78 184.785 1390.08 221.207 1413.36 233.618C1429.07 243.009 1447.05 239.969 1461.41 229.064C1477.73 216.671 1486.02 205.4 1507.03 217.068C1513.39 222.196 1514.49 223.935 1517.43 231.576C1507.74 262.514 1469.99 276.022 1440.32 277.977C1379.87 281.96 1336.43 246.83 1333.49 184.754C1330.66 125.098 1359.09 73.2981 1424.52 69.9133ZM1438.44 152.092C1446.81 150.81 1457.44 149.872 1462.86 142.44C1465.02 139.47 1465.76 135.929 1465.16 132.32C1464.06 125.718 1459.02 120.205 1453.72 116.496C1445.06 110.443 1435.15 108.407 1424.75 109.547C1414.48 112.347 1402.43 116.776 1396.82 126.56C1395.03 129.668 1394.31 133.247 1395.26 136.746C1396.59 141.655 1400.29 145.297 1404.62 147.714C1414.73 153.354 1427.27 152.385 1438.44 152.092Z" />
  <path d="M578.418 69.8965C628.233 66.8962 666.133 92.6614 677.223 142.434C685.266 178.537 674.481 183.122 640.782 182.257C622.294 181.421 600.942 183.108 582.751 181.948C541.703 179.33 533.529 209.608 565.804 232.255C581.036 242.944 600.135 240.827 615.076 229.59C631.623 217.147 640.95 204.392 662.283 217.816C667.944 222.024 669.144 225.185 671.861 231.641C660.108 263.248 625.419 275.834 594.371 278.003C533.059 282.285 489.886 244.781 487.579 183.385C485.378 124.767 514.076 73.1444 578.418 69.8965ZM592.489 152.064C600.988 150.834 611.445 149.94 617.053 142.512C619.219 139.646 620.017 136.153 619.505 132.614C618.578 126.209 613.881 120.788 608.832 117.071C599.85 110.458 589.368 108.319 578.419 109.618C568.252 112.656 556.146 117.217 550.795 127.137C549.109 130.264 548.54 133.74 549.605 137.173C551.162 142.194 555.173 145.818 559.729 148.153C569.674 153.251 581.654 152.367 592.489 152.064Z" />
  <path d="M401.523 72.7102C409.492 71.3599 420.467 72.6104 428.28 74.5303C440.629 77.5652 450.749 84.337 457.366 95.3113C461.81 102.681 464.103 110.997 465.164 119.482C468.359 145.025 466.082 172.58 466.117 198.356C466.139 214.252 468.64 246.133 465.129 260.217C463.946 264.963 461.945 269.313 457.581 271.898C450.271 276.227 436.432 277.371 428.227 275.203C421.693 273.477 417.091 269.016 414.858 262.691C411.887 254.276 413.039 243.889 413.089 235.061C413.229 209.967 417.455 152.344 405.142 131.667C401.019 124.743 394.996 120.234 387.182 118.263C377.469 115.815 369.306 118.157 360.901 123.163C330 152.989 357.073 246.325 340.75 267.956C336.866 273.103 330.228 274.888 324.099 275.73C316.139 276.824 306.66 276.381 300.022 271.323C294.913 267.428 293.545 262.059 292.738 255.988C291.252 244.801 292.075 232.739 292.085 221.454L292.268 159.068C292.351 139.21 290.426 118.04 292.269 98.3261C292.694 93.7844 293.956 88.5946 296.817 84.9356C310.263 67.7356 343.201 84.0139 360.993 82.2329C374.71 80.86 387.481 74.3364 401.523 72.7102Z" />
  <path d="M1634.65 68.944C1656.78 63.5459 1717.33 80.8048 1722.68 107.637C1726.2 125.356 1697.81 136.442 1683.65 128.924C1669.56 121.444 1657.52 110.711 1640.18 114.76C1593.99 123.874 1591.99 206.661 1627.58 228.729C1639.26 236.952 1658.37 237.299 1670.7 230.14C1686.69 220.857 1698.66 208.863 1717.53 221.416C1720.18 223.76 1723.77 229.278 1723.62 232.579C1722.26 260.795 1677.53 277.696 1654.13 279.345C1627.38 281.792 1597.51 275.368 1576.38 258.007C1533.3 222.639 1531.41 144.15 1566.24 102.438C1584.32 80.8034 1607.42 71.5314 1634.65 68.944Z" />
  <path d="M91.992 68.9371C111.139 65.138 141.983 73.9114 159.282 83.8958C178.337 94.8939 193.459 116.53 165.043 128.99C138.273 140.729 125.904 107.285 97.216 115.036C61.1509 124.781 57.7127 163.858 63.144 195.017C67.4376 217.117 83.2134 233.077 105.684 235.103C134.814 237.729 147.421 203.396 175.163 221.208C183.915 230.073 183.384 239.526 175.434 248.772C142.166 287.463 73.2465 289.461 34.4869 258.267C12.8995 240.488 3.2124 215.988 0.678448 188.966C-5.16978 126.6 26.9186 75.3602 91.992 68.9371Z" />
  <path d="M1248.48 13.7522C1295.17 9.13027 1275.51 41.9608 1290.61 64.5431C1295.03 71.1575 1313.94 74.2453 1316.85 85.6685C1322.77 108.922 1294.48 106.576 1286.6 122.872C1282.61 132.862 1283.83 145.24 1283.69 155.819C1283.97 162.903 1283.54 169.928 1283.8 177.017C1284.38 187.943 1281.64 208.078 1288.65 217.086C1302.34 234.667 1329.39 235.804 1317.07 266.02C1314.8 271.583 1308.38 274.438 1302.81 276.277C1274.9 280.691 1236.57 273.89 1229.3 242.777C1221.02 207.402 1229.95 165.049 1224.33 128.817C1222.11 114.568 1201.22 106.192 1198.72 92.7149C1195.69 76.384 1220.57 71.4864 1223.22 56.5774C1227.54 35.7259 1221.83 18.3063 1248.48 13.7522Z" />
  <path d="M221.645 70.6252C230.855 69.6857 243.15 68.7658 251.682 72.812C257.256 75.4554 260.302 80.2331 262.286 85.8763C263.688 89.8641 264.444 93.9688 264.725 98.1817C266.453 124.036 265.035 150.929 265.025 176.886C265.015 201.482 266.463 226.966 264.676 251.457C264.389 255.391 263.839 258.94 262.104 262.525C259.008 268.924 254.138 271.743 247.629 273.999C238.649 276.512 227.966 276.899 219.107 273.608C214.524 271.906 209.29 268.136 207.28 263.573C205.051 258.512 204.638 251.137 204.312 245.59C203.152 225.865 202.27 94.5616 206.563 83.635C209.194 76.9401 215.389 73.3221 221.645 70.6252Z" />
  <path d="M224.607 0.369839C234.802 -0.075404 244.229 -1.05881 253.621 4.31527C264.134 10.2106 268.038 24.4382 261.721 34.7474C257.248 42.0465 251.679 44.4223 243.747 46.3736C228.576 47.2319 209.402 47.771 204.347 29.3963C202.738 23.7448 203.448 17.6854 206.319 12.5582C210.702 4.86845 216.61 2.53192 224.607 0.369839Z" />
</svg>
